<svg xmlns="http://www.w3.org/2000/svg" width="77" height="64" viewBox="0 0 77 64"><title>Icon</title><path d="M60.48 46.28c-.04-.01-.09-.02-.14-.03l-9.4-1.41c-1.52-.99-1.66-3.44-1.67-6.09 2.97-3.08 4.83-7.41 4.83-12.19v-.39c2.3-2.06 3.61-4.97 3.61-8.09v-7.26C57.71 4.85 52.88 0 46.94 0H31.27c-2.25 0-4.14 1.58-4.63 3.69-4.14.5-7.35 4.05-7.35 8.34v6.05c0 3.12 1.31 6.03 3.61 8.09v.39c0 4.78 1.86 9.11 4.83 12.19-.01 2.65-.15 5.1-1.67 6.09l-9.4 1.41c-.05.01-.1.02-.14.03-2.07.59-3.83 1.87-5.09 3.73-1.15 1.69-1.79 3.74-1.79 5.75v4.69c0 1.96 1.74 3.55 3.88 3.55h49.96c2.14 0 3.88-1.59 3.88-3.55v-4.69c0-2.01-.64-4.06-1.79-5.75-1.26-1.86-3.02-3.14-5.09-3.73zM25.16 25.75a.67.67 0 0 0 0-.2v-6.26c0-2.04 1.66-3.7 3.7-3.7h20.49c.62 0 1.13-.51 1.13-1.14 0-.63-.51-1.13-1.13-1.13H28.86c-3.29 0-5.96 2.68-5.96 5.97v3.42a8.581 8.581 0 0 1-1.35-4.63v-6.05c0-3.38 2.74-6.13 6.1-6.13.62 0 1.13-.51 1.13-1.13 0-1.38 1.12-2.5 2.49-2.5h15.67c4.69 0 8.51 3.83 8.51 8.55v7.26c0 1.67-.48 3.27-1.35 4.63v-4.63a1.129 1.129 0 1 0-2.26 0v8.48c0 8.05-5.99 14.6-13.34 14.6s-13.34-6.55-13.34-14.6zm-18 25.09H2.9c-.36 0-.64-.22-.64-.42v-3.03c0-1.71 1.04-3.72 3.03-4.32l6.15-.93c.02 0 .05-.01.08-.01.01-.01.02-.01.03-.01.04-.01.08-.02.12-.04.01 0 .02-.01.03-.01.03-.01.07-.03.1-.05h.01c.01-.01.02-.02.03-.02.01-.01.02-.01.03-.02 1.37-.78 1.84-2.2 2-3.59a9.763 9.763 0 0 0 9.46.36c.56-.28.79-.96.51-1.52s-.96-.79-1.51-.51c-1.07.53-2.22.81-3.4.81-4.54 0-8.23-4.06-8.23-9.05v-4.84c0-1.1.89-2 1.99-2h2.91a1.135 1.135 0 0 0 0-2.27h-2.91c-2.35 0-4.25 1.91-4.25 4.27v.59c-.1-.4-.15-.81-.15-1.23v-3.92c0-1.97 1.59-3.56 3.55-3.56.62 0 1.13-.51 1.13-1.14 0-.67.54-1.21 1.21-1.21h1.42c.62 0 1.13-.51 1.13-1.14 0-.63-.51-1.13-1.13-1.13h-1.42a3.48 3.48 0 0 0-3.31 2.43 5.82 5.82 0 0 0-4.84 5.75V23c0 2.1.87 4.07 2.41 5.47v.01c0 3.22 1.25 6.12 3.26 8.19-.01 1.44-.12 2.73-.84 3.26l-5.98.91c-.05 0-.1.01-.14.03C1.63 41.74 0 44.81 0 47.39v3.03c0 1.49 1.3 2.69 2.9 2.69h4.26c.62 0 1.13-.5 1.13-1.13 0-.63-.51-1.14-1.13-1.14zm57.94 9.61c0 .7-.74 1.28-1.62 1.28H13.52c-.88 0-1.62-.58-1.62-1.28v-4.69c0-2.87 1.78-6.28 5.16-7.27l8.53-1.29c1.26 5.52 6.61 9.55 12.91 9.55s11.65-4.03 12.91-9.55l8.53 1.29c3.38.99 5.16 4.4 5.16 7.27zM38.5 43.43c3.16 0 6.09-1.02 8.55-2.77.11 2.07.54 4.37 2.21 5.75-.9 4.64-5.41 8.07-10.76 8.07s-9.86-3.43-10.76-8.07c1.67-1.38 2.1-3.68 2.21-5.75 2.46 1.75 5.39 2.77 8.55 2.77zm33.76-2.56a.32.32 0 0 0-.14-.03l-5.99-.91c-.71-.53-.82-1.82-.83-3.26 2.01-2.07 3.26-4.97 3.26-8.19v-.01a7.364 7.364 0 0 0 2.41-5.48v-6.12c0-3.29-2.67-5.97-5.95-5.97H61.4c-.62 0-1.13.5-1.13 1.13 0 .63.51 1.14 1.13 1.14h3.62c2.04 0 3.69 1.66 3.69 3.7V23c0 .42-.05.83-.15 1.23v-.59c0-2.36-1.91-4.27-4.25-4.27H61.4a1.135 1.135 0 0 0 0 2.27h2.91c1.1 0 1.99.9 1.99 2v4.84c0 4.99-3.69 9.05-8.23 9.05-1.18 0-2.33-.28-3.4-.81-.55-.28-1.23-.05-1.51.51s-.05 1.24.51 1.52c1.38.69 2.86 1.05 4.4 1.05a9.9 9.9 0 0 0 5.06-1.41c.16 1.39.63 2.81 2 3.59.01.01.02.01.03.02.01 0 .02.01.03.02h.01c.03.02.07.04.1.05.01 0 .02.01.03.01.04.02.08.03.12.04.01 0 .02 0 .03.01.03 0 .06.01.08.01l6.15.93c1.99.6 3.03 2.61 3.03 4.32v3.03c0 .2-.28.42-.64.42h-4.26c-.62 0-1.13.51-1.13 1.14 0 .63.51 1.13 1.13 1.13h4.26c1.6 0 2.9-1.2 2.9-2.69v-3.03c0-2.58-1.63-5.65-4.74-6.52z" fill="#ff7101"/></svg>