<svg xmlns="http://www.w3.org/2000/svg" width="64" height="63" viewBox="0 0 64 63"><title>Icon</title><path d="M40.72 15.37c-1.6 0-2.91 1.3-2.91 2.91v26.44c0 1.61 1.31 2.91 2.91 2.91h3.59c1.61 0 2.92-1.3 2.92-2.91V18.28c0-1.61-1.31-2.91-2.92-2.91zm-7.42 7.98h-3.59c-1.61 0-2.92 1.31-2.92 2.92v18.45c0 1.61 1.31 2.91 2.92 2.91h3.59c1.61 0 2.91-1.3 2.91-2.91V26.27c0-1.61-1.3-2.92-2.91-2.92zM18.69 29.9c-1.6 0-2.91 1.31-2.91 2.92v11.9c0 1.61 1.31 2.91 2.91 2.91h3.6c1.6 0 2.91-1.3 2.91-2.91v-11.9c0-1.61-1.31-2.92-2.91-2.92zm25.66 14.82c0 .02-.01.04-.04.04h-3.59c-.02 0-.04-.02-.04-.04V18.28c0-.02.02-.04.04-.04h3.59c.03 0 .04.02.04.04zm-11.01 0c0 .02-.02.04-.04.04h-3.59c-.02 0-.04-.02-.04-.04V26.27c0-.02.02-.04.04-.04h3.59c.02 0 .04.02.04.04zm-11.02 0c0 .02-.01.04-.03.04h-3.6c-.02 0-.04-.02-.04-.04v-11.9c0-.02.02-.04.04-.04h3.6c.02 0 .03.02.03.04zm40.05-19.51c-.16-.78-.92-1.28-1.7-1.13-.77.16-1.27.92-1.12 1.7 2.23 10.93-2.14 22.25-11.13 28.84-6.13 4.5-13.69 6.33-21.29 5.16-7.61-1.17-14.27-5.2-18.76-11.33-4.49-6.13-6.32-13.7-5.15-21.31 1.17-7.6 5.19-14.27 11.32-18.76 6.13-4.5 13.69-6.33 21.29-5.16 7.5 1.16 14.08 5.09 18.57 11.08l-1.82-.35c-.78-.15-1.53.36-1.68 1.14-.15.78.36 1.54 1.14 1.69l5.33 1.02a1.385 1.385 0 0 0 1.08-.22c.32-.21.53-.54.61-.92l1.02-5.33c.15-.78-.36-1.54-1.14-1.69-.78-.15-1.53.36-1.68 1.14l-.39 2.03C51.93 6.08 44.61 1.67 36.27.38c-8.36-1.29-16.68.73-23.43 5.68C6.09 11.01 1.67 18.34.38 26.71c-1.29 8.36.73 16.69 5.67 23.44C11 56.9 18.33 61.33 26.69 62.62c1.65.25 3.29.38 4.93.38 6.65 0 13.08-2.08 18.5-6.06 9.89-7.25 14.7-19.71 12.25-31.73z" fill="#ff7101"/></svg>