<svg xmlns="http://www.w3.org/2000/svg" width="82" height="50" viewBox="0 0 82 50"><title>Icon</title><path d="M80.583 33.79V23.72c0-1.22-.329-2.42-.953-3.47L72.125 7.59c-1.249-2.1-3.565-3.41-6.043-3.41h-9.497c-1.513 0-2.745 1.21-2.745 2.7v23.78h-3.011V4.09c0-2.25-1.867-4.09-4.162-4.09H4.162C1.867 0 0 1.84 0 4.09v33.45c0 2.26 1.867 4.1 4.162 4.1h10.099c.65 4.71 4.768 8.36 9.737 8.36s9.086-3.65 9.737-8.36h20.197C54.583 46.35 58.7 50 63.669 50c4.97 0 9.087-3.65 9.737-8.36h5.849c1.513 0 2.745-1.21 2.745-2.7v-2.79c0-1.02-.573-1.9-1.417-2.36zM2.656 37.54v-1.48h1.506c2.295 0 4.162-1.83 4.162-4.09v-5.58c0-.72-.595-1.3-1.328-1.3h-4.34v-21c0-.81.676-1.48 1.506-1.48h42.505c.83 0 1.506.67 1.506 1.48v34.93H33.735c-.651-4.71-4.768-8.36-9.737-8.36s-9.087 3.65-9.737 8.36H4.162c-.83 0-1.506-.66-1.506-1.48zm73.765-4.09c-1.514 0-2.745 1.21-2.745 2.7v2.87h-.269c-.651-4.71-4.768-8.36-9.737-8.36a9.862 9.862 0 0 0-7.173 3.07V23.52h11.079c.781 0 1.515.3 2.067.84l1.76 1.73a5.578 5.578 0 0 0 3.945 1.61h2.579v5.75zm1.506-9.73v1.37h-2.579c-.781 0-1.514-.3-2.066-.85l-1.761-1.73a5.61 5.61 0 0 0-3.945-1.6H56.497v-8.54H71.88l5.455 9.2c.387.65.592 1.39.592 2.15zM23.998 47.39c-3.954 0-7.17-3.17-7.173-7.05v-.01c.003-3.89 3.219-7.06 7.173-7.06 3.955 0 7.173 3.17 7.173 7.06 0 3.89-3.218 7.06-7.173 7.06zm39.672 0c-3.956 0-7.173-3.17-7.173-7.06 0-3.89 3.217-7.06 7.173-7.06 3.955 0 7.172 3.17 7.172 7.06 0 3.89-3.217 7.06-7.172 7.06zM23.998 36.24c-2.295 0-4.162 1.83-4.162 4.09s1.867 4.1 4.162 4.1 4.162-1.84 4.162-4.1-1.867-4.09-4.162-4.09zm39.672 0c-2.295 0-4.162 1.83-4.162 4.09s1.867 4.1 4.162 4.1c2.294 0 4.161-1.84 4.161-4.1s-1.867-4.09-4.161-4.09zM56.585 6.79h9.497c1.537 0 2.973.82 3.748 2.12l.5.85H56.497V6.88c0-.05.039-.09.088-.09zM53.84 33.27v5.75h-3.011v-5.75zM2.656 27.7h3.011v4.27c0 .81-.675 1.48-1.505 1.48H2.656zm21.342 14.11c-.83 0-1.506-.66-1.506-1.48s.676-1.48 1.506-1.48 1.505.66 1.505 1.48-.675 1.48-1.505 1.48zm39.672 0c-.831 0-1.506-.66-1.506-1.48s.675-1.48 1.506-1.48c.83 0 1.505.66 1.505 1.48s-.675 1.48-1.505 1.48zm15.673-2.87c0 .04-.039.08-.088.08h-2.922v-2.87c0-.05.039-.09.088-.09h2.834c.049 0 .088.04.088.09zm-41.55-22.39l-4.817 4.74a1.295 1.295 0 0 0 0 1.85 1.354 1.354 0 0 0 1.879 0l7.084-6.97c.027-.03.051-.06.074-.08.005-.01.009-.01.013-.02a.868.868 0 0 0 .102-.14l.018-.03c.03-.05.058-.1.08-.15l.001-.01a.916.916 0 0 0 .057-.17l.009-.03c.013-.06.024-.11.029-.17a1.24 1.24 0 0 0 .002-.21c-.004-.06-.01-.12-.021-.17h-.001c-.011-.06-.027-.11-.046-.17l-.011-.03c-.04-.11-.095-.21-.165-.3a.12.12 0 0 0-.024-.04c-.036-.04-.074-.09-.117-.13l-7.084-6.97a1.344 1.344 0 0 0-1.878 0 1.294 1.294 0 0 0 0 1.85l4.816 4.74H9.829c-.733 0-1.328.58-1.328 1.3 0 .73.595 1.31 1.328 1.31z" fill="#ff7101"/></svg>