<svg xmlns="http://www.w3.org/2000/svg" width="75" height="72" viewBox="0 0 75 72"><title>Icon</title><path d="M73.722 35.59l-8.134-9.51 8.134-9.51a1.153 1.153 0 0 0-.317-1.76L47.071.15a1.144 1.144 0 0 0-1.375.19l-7.999 7.94L29.772.34a1.146 1.146 0 0 0-1.397-.18L.577 16.28a1.16 1.16 0 0 0-.572.9c-.034.37.115.74.4.98l9.419 8.09-8.129 10.86a1.164 1.164 0 0 0 .364 1.71l8.098 4.51c-.034.11-.069.22-.069.34v10.72c0 1.42.76 2.74 1.985 3.45l23.53 13.61a4.16 4.16 0 0 0 2.052.55h.039c.012 0 .022-.01.034-.01a4.11 4.11 0 0 0 1.981-.54l23.457-13.57a4.153 4.153 0 0 0 2.056-3.57V42.37l8.225-5.04a1.157 1.157 0 0 0 .275-1.74zm-62.004-8.01l24.244 13.5-7.332 9.88L4.341 37.44zM28.764 2.61l7.112 7.12-24.364 14.92-8.365-7.18zm17.944-.02l24.336 13.55-7.214 8.44L39.547 9.71zM38.85 12l22.921 14.03L38.85 38.79zm24.06 42.31c0 .64-.346 1.24-.901 1.56L38.85 69.27V44.16l6.735 9c.226.3.573.47.926.47.206 0 .415-.06.602-.17l15.797-9.68zM36.537 38.75L13.693 26.03l22.844-13.99zM13.231 55.83c-.512-.3-.83-.85-.83-1.44v-9.81l15.992 8.9c.177.1.369.15.56.15.356 0 .704-.17.929-.47l6.655-8.97v25.12zm33.574-4.9l-7.353-9.82 24.351-13.56 7.28 8.51z" fill="#ff7101"/></svg>